# xmcd
# 
# Track frame offsets:
#     182
#     51782
#     76767
#     106817
#     135057
#     166600
#     255595
# 
# Disc length: 3917
# 
# Revision: 11
# Processed by: cddbd v1.5.2PL0 Copyright (c) Steve Scherf et al.
# Submitted via: fre:ac v1.0.17
# 
DISCID=400f4b07
DTITLE=Derek And The Dominos - Live At The Fillmore [CD2)
DYEAR=1994
DGENRE=Rock
TTITLE0=Tell The Truth
TTITLE1=Nobody Knows You When You're Down And Out
TTITLE2=Roll It Over
TTITLE3=Presence Of The Lord
TTITLE4=Little Wing
TTITLE5=Let It Rain
TTITLE6=Crossroads
EXTD=This was oriignally recorded during 2 concerts in 1970. Some of the material was previously released. But this album was not published until 1994.
EXTT0=
EXTT1=
EXTT2=
EXTT3=
EXTT4=
EXTT5=
EXTT6=
PLAYORDER=
